<svg width="48" height="48" viewBox="0 0 48 48" fill="none" xmlns="http://www.w3.org/2000/svg">
<path d="M23.9999 0.000488281C10.7663 0.000488281 0 10.7668 0 24.0004C0 37.234 10.7663 48.0003 23.9999 48.0003C37.2337 48.0003 48 37.234 48 24.0004C48 10.7668 37.2337 0.000488281 23.9999 0.000488281ZM13.1847 31.5247L10.2435 27.2178H9.48718V31.5247H6.50218V16.3012H9.48718V24.9577H10.1647L12.6338 20.9919H15.9584L12.5551 25.7567L16.4798 31.5247H13.1847ZM19.9647 28.6939C20.276 29.2734 20.8314 29.5631 21.5986 29.5631C22.1102 29.5631 22.5279 29.4211 22.8363 29.1245C23.1444 28.828 23.3065 28.4971 23.3065 27.9427H25.9133L25.9427 27.9955C25.9688 29.0711 25.564 29.9681 24.7278 30.6925C23.8918 31.4173 22.854 31.7778 21.6146 31.7778C20.0275 31.7778 18.8018 31.2754 17.9426 30.2721C17.0836 29.2688 16.6513 27.9795 16.6513 26.4057V26.1104C16.6513 24.5431 17.082 23.2547 17.9378 22.2447C18.7936 21.2349 20.0164 20.7299 21.6033 20.7299C22.9149 20.7299 23.9729 21.1037 24.7764 21.8512C25.5795 22.5988 25.9684 23.6307 25.9423 24.8505L25.923 24.9578H23.3065C23.3065 24.3608 23.1555 23.9013 22.854 23.5373C22.5523 23.1734 22.136 22.9673 21.6046 22.9673C20.844 22.9673 20.276 23.25 19.9647 23.8392C19.6531 24.4285 19.4657 25.176 19.4657 26.1057V26.4004C19.4657 27.3499 19.6531 28.1144 19.9647 28.6939ZM33.8218 31.5247C33.7169 31.3541 33.6265 31.0489 33.5513 30.7799C33.4757 30.5111 33.4217 30.2469 33.389 29.9649C33.0937 30.483 32.7053 30.9181 32.2232 31.259C31.7413 31.6001 31.1658 31.7733 30.4969 31.7733C29.3822 31.7733 28.5232 31.488 27.9199 30.9142C27.3165 30.3403 27.0149 29.559 27.0149 28.5689C27.0149 27.526 27.4164 26.7258 28.2198 26.1518C29.0229 25.5781 30.1954 25.2988 31.7365 25.2988H33.4099V24.4383C33.4099 23.9268 33.2404 23.53 32.9714 23.2479C32.7026 22.9661 32.2883 22.825 31.7638 22.825C31.298 22.825 30.9303 22.938 30.6779 23.1643C30.4254 23.3905 30.2949 23.7037 30.2949 24.1036L27.5188 24.0939L27.5077 24.0349C27.462 23.1365 27.8515 22.3611 28.6778 21.7086C29.5041 21.056 30.5892 20.7298 31.9336 20.7298C33.2057 20.7298 34.2395 21.0529 35.033 21.6986C35.8264 22.3447 36.2244 23.2643 36.2244 24.4577V28.8548C36.2244 29.3532 36.2608 29.7996 36.3362 30.239C36.4116 30.6782 36.5302 31.1409 36.6942 31.5247H33.8218V31.5247ZM38.4844 31.5247V16.3012H41.4694V31.5247H38.4844Z" fill="#FFC619"/>
<path d="M30.3493 27.3275C30.0345 27.6325 29.8772 28.0195 29.8772 28.4523C29.8772 28.8065 29.9952 29.101 30.2313 29.3174C30.4674 29.5338 30.7886 29.6464 31.1953 29.6464C31.7002 29.6464 32.1844 29.5243 32.5779 29.2751C32.9713 29.0258 33.1966 28.7396 33.4098 28.4118V26.8335H31.7364C31.1263 26.8335 30.6641 27.0227 30.3493 27.3275Z" fill="#FFC619"/>
</svg>
