<svg width="48" height="48" viewBox="0 0 48 48" fill="none" xmlns="http://www.w3.org/2000/svg">
<path d="M23.8972 0C21.7378 0 19.7719 1.10708 18.7533 2.83754L18.3052 3.59956L17.531 3.18056C16.8078 2.78517 15.9828 2.57566 15.1577 2.57566C12.2751 2.57566 9.93239 4.99626 9.93239 8.04022C9.93239 10.7617 11.827 13.0313 14.3632 13.4421L15.1374 13.5654V19.0494C21.035 17.9095 26.953 17.8581 32.8608 19.0494V11.8914L33.3497 11.6244C34.9489 10.772 36.0082 8.94397 36.0082 6.88487C36.0082 3.92717 33.8997 1.63495 31.3838 1.63495C30.7217 1.63495 30.0596 1.8003 29.4587 2.11969L28.8272 2.44832L28.3586 1.92559C27.2585 0.716832 25.6288 0 23.8972 0ZM23.9991 20.0045C21.3915 20.0045 18.7941 20.251 16.1865 20.7234C16.0948 21.3396 16.0541 21.9763 16.0541 22.6336C16.0541 25.6118 16.9912 28.3025 18.458 30.2024C19.9247 32.1024 21.8702 33.2115 23.9991 33.2115C26.1279 33.2115 28.0734 32.1024 29.5402 30.2024C31.0069 28.3025 31.944 25.6118 31.944 22.6336C31.944 21.9763 31.8931 21.3293 31.8116 20.7132C29.204 20.2305 26.6066 19.9943 23.9991 20.0045ZM19.1811 33.4477L10.0954 36.4978L7.24536 48H30.681L29.204 37.5556L31.0171 37.2886L32.5348 48H40.7548L37.9028 36.4978L28.817 33.4477C27.4113 34.4644 25.7612 35.0601 23.9991 35.0601C22.2369 35.0601 20.5868 34.4644 19.1811 33.4477ZM26.2399 38.8599C26.3737 38.8599 26.5062 38.8864 26.6298 38.938C26.7533 38.9896 26.8656 39.0653 26.9602 39.1606C27.0548 39.256 27.1298 39.3692 27.181 39.4938C27.2322 39.6184 27.2585 39.752 27.2585 39.8869C27.2585 40.0217 27.2322 40.1553 27.181 40.2799C27.1298 40.4045 27.0548 40.5177 26.9602 40.6131C26.8656 40.7084 26.7533 40.7841 26.6298 40.8357C26.5062 40.8873 26.3737 40.9139 26.2399 40.9138C26.1062 40.9139 25.9737 40.8873 25.8501 40.8357C25.7265 40.7841 25.6143 40.7084 25.5197 40.6131C25.4251 40.5177 25.3501 40.4045 25.2989 40.2799C25.2477 40.1553 25.2213 40.0217 25.2214 39.8869C25.2213 39.752 25.2477 39.6184 25.2989 39.4938C25.3501 39.3692 25.4251 39.256 25.5197 39.1606C25.6143 39.0653 25.7265 38.9896 25.8501 38.938C25.9737 38.8864 26.1062 38.8599 26.2399 38.8599ZM26.953 43.584C27.2231 43.584 27.4822 43.6922 27.6732 43.8848C27.8642 44.0774 27.9715 44.3386 27.9715 44.611C27.9715 44.8833 27.8642 45.1446 27.6732 45.3372C27.4822 45.5297 27.2231 45.6379 26.953 45.6379C26.6828 45.6379 26.4237 45.5297 26.2327 45.3372C26.0417 45.1446 25.9344 44.8833 25.9344 44.611C25.9344 44.3386 26.0417 44.0774 26.2327 43.8848C26.4237 43.6922 26.6828 43.584 26.953 43.584Z" fill="#FFC619"/>
</svg>
