<svg width="20" height="16" viewBox="0 0 20 16" fill="none" xmlns="http://www.w3.org/2000/svg">
<path d="M19.25 6C19.6562 6 20 6.34375 20 6.75V15C20 15.5625 19.5312 16 19 16H1C0.4375 16 0 15.5625 0 15V3.75C0 3.34375 0.3125 3 0.75 3H2V0.5C2 0.25 2.21875 0 2.5 0H3C3.25 0 3.5 0.25 3.5 0.5V3H5.5V0.5C5.5 0.25 5.71875 0 6 0H6.5C6.75 0 7 0.25 7 0.5V3H9V0.75C9 0.34375 9.3125 0 9.75 0H14.25C14.6562 0 15 0.34375 15 0.75V6H19.25ZM4 12.625V11.375C4 11.1875 3.8125 11 3.625 11H2.375C2.15625 11 2 11.1875 2 11.375V12.625C2 12.8438 2.15625 13 2.375 13H3.625C3.8125 13 4 12.8438 4 12.625ZM4 9.625V8.375C4 8.1875 3.8125 8 3.625 8H2.375C2.15625 8 2 8.1875 2 8.375V9.625C2 9.84375 2.15625 10 2.375 10H3.625C3.8125 10 4 9.84375 4 9.625ZM4 6.625V5.375C4 5.1875 3.8125 5 3.625 5H2.375C2.15625 5 2 5.1875 2 5.375V6.625C2 6.84375 2.15625 7 2.375 7H3.625C3.8125 7 4 6.84375 4 6.625ZM8 12.625V11.375C8 11.1875 7.8125 11 7.625 11H6.375C6.15625 11 6 11.1875 6 11.375V12.625C6 12.8438 6.15625 13 6.375 13H7.625C7.8125 13 8 12.8438 8 12.625ZM8 9.625V8.375C8 8.1875 7.8125 8 7.625 8H6.375C6.15625 8 6 8.1875 6 8.375V9.625C6 9.84375 6.15625 10 6.375 10H7.625C7.8125 10 8 9.84375 8 9.625ZM8 6.625V5.375C8 5.1875 7.8125 5 7.625 5H6.375C6.15625 5 6 5.1875 6 5.375V6.625C6 6.84375 6.15625 7 6.375 7H7.625C7.8125 7 8 6.84375 8 6.625ZM13 9.625V8.375C13 8.1875 12.8125 8 12.625 8H11.375C11.1562 8 11 8.1875 11 8.375V9.625C11 9.84375 11.1562 10 11.375 10H12.625C12.8125 10 13 9.84375 13 9.625ZM13 6.625V5.375C13 5.1875 12.8125 5 12.625 5H11.375C11.1562 5 11 5.1875 11 5.375V6.625C11 6.84375 11.1562 7 11.375 7H12.625C12.8125 7 13 6.84375 13 6.625ZM13 3.625V2.375C13 2.1875 12.8125 2 12.625 2H11.375C11.1562 2 11 2.1875 11 2.375V3.625C11 3.84375 11.1562 4 11.375 4H12.625C12.8125 4 13 3.84375 13 3.625ZM18 12.625V11.375C18 11.1875 17.8125 11 17.625 11H16.375C16.1562 11 16 11.1875 16 11.375V12.625C16 12.8438 16.1562 13 16.375 13H17.625C17.8125 13 18 12.8438 18 12.625ZM18 9.625V8.375C18 8.1875 17.8125 8 17.625 8H16.375C16.1562 8 16 8.1875 16 8.375V9.625C16 9.84375 16.1562 10 16.375 10H17.625C17.8125 10 18 9.84375 18 9.625Z" fill="#222326"/>
</svg>
