<svg width="24" height="24" viewBox="0 0 24 24" fill="none" xmlns="http://www.w3.org/2000/svg">
<path fill-rule="evenodd" clip-rule="evenodd" d="M12 0C5.37258 0 0 5.37258 0 12C0 18.6274 5.37258 24 12 24C18.6274 24 24 18.6274 24 12C24 5.37258 18.6274 0 12 0ZM14.0024 6.00079C14.9866 6.1761 15.9446 6.4823 16.8524 6.91172C16.86 6.91537 16.8661 6.92165 16.8696 6.92948C18.4507 9.32632 19.2317 12.0304 18.9397 15.1431C18.9391 15.1497 18.9372 15.156 18.934 15.1618C18.9309 15.1675 18.9265 15.1725 18.9214 15.1764C17.8636 15.9844 16.6799 16.6004 15.4211 16.998C15.4122 17.0008 15.4026 17.0007 15.3938 16.9976C15.3849 16.9945 15.3773 16.9886 15.3719 16.9808C15.1056 16.5998 14.8668 16.1993 14.6573 15.7823C14.6544 15.7766 14.6527 15.7702 14.6523 15.7638C14.652 15.7573 14.6529 15.7508 14.6552 15.7447C14.6574 15.7386 14.6609 15.7331 14.6654 15.7285C14.6699 15.7239 14.6752 15.7204 14.6811 15.7181C15.0597 15.5717 15.4256 15.3925 15.775 15.1826C15.7813 15.1787 15.7865 15.1732 15.7903 15.1667C15.7941 15.1602 15.7963 15.1529 15.7967 15.1453C15.7971 15.1377 15.7956 15.1302 15.7925 15.1233C15.7894 15.1164 15.7847 15.1105 15.7788 15.1059C15.7036 15.0493 15.63 14.9895 15.56 14.93C15.5537 14.9247 15.546 14.9213 15.5378 14.9203C15.5297 14.9193 15.5215 14.9208 15.5141 14.9244C13.2498 16.0028 10.769 16.0028 8.47773 14.9244C8.47039 14.921 8.46228 14.9198 8.45431 14.9209C8.44634 14.922 8.43882 14.9253 8.43261 14.9306C8.3626 14.9904 8.28904 15.0495 8.21576 15.1059C8.20989 15.1105 8.20521 15.1165 8.20213 15.1234C8.19905 15.1303 8.19767 15.1379 8.1981 15.1454C8.19853 15.153 8.20077 15.1604 8.20461 15.1668C8.20845 15.1733 8.21378 15.1787 8.22013 15.1826C8.5699 15.3905 8.93511 15.5696 9.31232 15.7181C9.31819 15.7203 9.32354 15.7238 9.32801 15.7283C9.33249 15.7328 9.33599 15.7382 9.33829 15.7442C9.34059 15.7502 9.34163 15.7566 9.34135 15.763C9.34107 15.7694 9.33947 15.7757 9.33666 15.7815C9.13066 16.2007 8.89149 16.6017 8.62157 16.9805C8.61599 16.9881 8.60828 16.9938 8.59948 16.9967C8.59068 16.9997 8.58121 16.9998 8.57234 16.9971C7.31527 16.5984 6.13306 15.9824 5.07619 15.1755C5.07109 15.1714 5.06684 15.1663 5.06369 15.1605C5.06054 15.1547 5.05856 15.1483 5.05786 15.1417C4.81394 12.4498 5.31109 9.72344 7.12603 6.92835C7.13048 6.92092 7.13708 6.91511 7.14489 6.91172C8.05218 6.48203 9.00984 6.17582 9.99378 6.00079C10.0027 5.99928 10.0119 6.0006 10.0201 6.00458C10.0283 6.00855 10.0351 6.01499 10.0397 6.02305C10.1732 6.2665 10.2935 6.51735 10.4001 6.77446C11.461 6.60841 12.5401 6.60841 13.601 6.77446C13.7071 6.51799 13.8258 6.2672 13.9565 6.02305C13.9609 6.01482 13.9677 6.00823 13.9759 6.00423C13.9842 6.00023 13.9934 5.99903 14.0024 6.00079ZM8.42058 12.0484C8.42058 12.85 8.98855 13.5028 9.67848 13.5028C10.3794 13.5028 10.9369 12.85 10.9364 12.0484C10.9479 11.2525 10.3848 10.5941 9.67848 10.5941C8.97788 10.5941 8.42058 11.2468 8.42058 12.0484ZM13.0729 12.0484C13.0729 12.85 13.6409 13.5028 14.3308 13.5028C15.0372 13.5028 15.589 12.85 15.5887 12.0484C15.6002 11.2525 15.0372 10.5941 14.3308 10.5941C13.6302 10.5941 13.0729 11.2468 13.0729 12.0484Z" fill="#F5F5F5"/>
</svg>
