<svg xmlns="http://www.w3.org/2000/svg" width="24" height="24" viewBox="0 0 24 24"><g transform="translate(-1308.281 -492.531)"><g transform="translate(1308.281 492.531)"><path d="M24.281-3.4a12.035,12.035,0,0,0-12-12.073A12.035,12.035,0,0,0,.281-3.4,12.055,12.055,0,0,0,10.406,8.531V.094H7.358V-3.4h3.048v-2.66c0-3.026,1.79-4.7,4.532-4.7a18.361,18.361,0,0,1,2.686.236v2.97H16.112a1.74,1.74,0,0,0-1.955,1.885V-3.4h3.328L16.952.094h-2.8V8.531A12.055,12.055,0,0,0,24.281-3.4Z" transform="translate(-0.281 15.469)" fill="#fff"/></g></g></svg>