<svg xmlns="http://www.w3.org/2000/svg" width="10" height="14" viewBox="0 0 10 14"><path d="M610.04,297.035a2.86,2.86,0,0,1,.54,1.539c.137,1.439-1.457,3.349-1.567-.811a5.722,5.722,0,0,0-3.271-5.364,3.112,3.112,0,0,1,.494,3.415,8.745,8.745,0,0,1-2.072,2.357,4.947,4.947,0,0,0-1.858,3.57,4.6,4.6,0,0,0,4.26,4.658c-5.2-3.69-.412-8.086-.412-8.086a2.734,2.734,0,0,0,.44,4.03c.924.564,2.337.724,2.652,2.224a1.568,1.568,0,0,1-.948,1.832,4.173,4.173,0,0,0,3.876-3.48C612.837,300.124,610.811,297.809,610.04,297.035Z" transform="translate(-602.306 -292.398)" fill="#fff"/></svg>