<svg width="24" height="24" viewBox="0 0 24 24" fill="none" xmlns="http://www.w3.org/2000/svg"><path d="M2.5 3.111c0-.337.274-.611.611-.611h6.667c.337 0 .61.274.61.611v6.667a.611.611 0 01-.61.61H3.11a.611.611 0 01-.611-.61V3.11zm11.111 0c0-.337.274-.611.611-.611h6.667c.337 0 .611.274.611.611v6.667a.611.611 0 01-.611.61h-6.667a.611.611 0 01-.61-.61V3.11zM2.5 14.222c0-.337.274-.61.611-.61h6.667c.337 0 .61.273.61.61v6.667a.611.611 0 01-.61.611H3.11a.611.611 0 01-.611-.611v-6.667zm11.111 0c0-.337.274-.61.611-.61h6.667c.337 0 .611.273.611.61v6.667a.611.611 0 01-.611.611h-6.667a.611.611 0 01-.61-.611v-6.667z" fill="#CCC" stroke="#CCC"/></svg>