<svg xmlns="http://www.w3.org/2000/svg" width="24" height="23.995" viewBox="0 0 24 23.995"><g transform="translate(-1329 -492.998)"><path d="M12-9.6A6.142,6.142,0,0,0,5.848-3.447,6.142,6.142,0,0,0,12,2.705a6.142,6.142,0,0,0,6.152-6.152A6.142,6.142,0,0,0,12-9.6ZM12,.553a4.007,4.007,0,0,1-4-4,4,4,0,0,1,4-4,4,4,0,0,1,4,4A4.007,4.007,0,0,1,12,.553Zm7.838-10.4A1.435,1.435,0,0,0,18.4-11.285,1.435,1.435,0,0,0,16.969-9.85,1.432,1.432,0,0,0,18.4-8.415,1.432,1.432,0,0,0,19.838-9.85Zm4.074,1.456a7.1,7.1,0,0,0-1.938-5.028,7.148,7.148,0,0,0-5.028-1.938c-1.981-.112-7.919-.112-9.9,0A7.137,7.137,0,0,0,2.02-13.427,7.124,7.124,0,0,0,.082-8.4C-.031-6.418-.031-.48.082,1.5A7.1,7.1,0,0,0,2.02,6.528,7.157,7.157,0,0,0,7.047,8.466c1.981.112,7.919.112,9.9,0a7.1,7.1,0,0,0,5.028-1.938A7.148,7.148,0,0,0,23.913,1.5C24.025-.48,24.025-6.413,23.913-8.394ZM21.354,3.626a4.049,4.049,0,0,1-2.281,2.281c-1.579.626-5.327.482-7.073.482s-5.5.139-7.073-.482A4.049,4.049,0,0,1,2.646,3.626C2.02,2.047,2.164-1.7,2.164-3.447s-.139-5.5.482-7.073A4.049,4.049,0,0,1,4.927-12.8c1.579-.626,5.327-.482,7.073-.482s5.5-.139,7.073.482a4.049,4.049,0,0,1,2.281,2.281c.626,1.579.482,5.327.482,7.073S21.98,2.052,21.354,3.626Z" transform="translate(1329.003 508.442)" fill="#fff"/></g></svg>