<svg width="24" height="24" viewBox="0 0 24 24" fill="none" xmlns="http://www.w3.org/2000/svg"><g clip-path="url(#clip0_13937_5232)"><path d="M9.877 9.435a2.115 2.115 0 100-4.231 2.115 2.115 0 000 4.23z" fill="#444141"/><path d="M9.877 9.435a2.115 2.115 0 100-4.231 2.115 2.115 0 000 4.23z" fill="#000" fill-opacity=".2"/><path d="M9.877 9.435a2.115 2.115 0 100-4.231 2.115 2.115 0 000 4.23z" fill="#000" fill-opacity=".2"/><path d="M9.877 9.435a2.115 2.115 0 100-4.231 2.115 2.115 0 000 4.23z" fill="#000" fill-opacity=".2"/><path d="M15.031 9.435a1.615 1.615 0 100-3.231 1.615 1.615 0 000 3.23z" fill="#444141"/><path d="M15.031 9.435a1.615 1.615 0 100-3.231 1.615 1.615 0 000 3.23z" fill="#000" fill-opacity=".2"/><path d="M15.031 9.435a1.615 1.615 0 100-3.231 1.615 1.615 0 000 3.23z" fill="#000" fill-opacity=".2"/><path d="M15.031 9.435a1.615 1.615 0 100-3.231 1.615 1.615 0 000 3.23z" fill="#000" fill-opacity=".2"/><path d="M11.625 17.435h3.791c.715 0 1.296-.574 1.307-1.286v-2.022c0-.715-.574-1.296-1.286-1.307h-3.792c-.714 0-1.295.573-1.307 1.286v2.021c0 .716.574 1.296 1.287 1.308z" fill="#444141"/><path d="M11.625 17.435h3.791c.715 0 1.296-.574 1.307-1.286v-2.022c0-.715-.574-1.296-1.286-1.307h-3.792c-.714 0-1.295.573-1.307 1.286v2.021c0 .716.574 1.296 1.287 1.308z" fill="#000" fill-opacity=".2"/><path d="M11.625 17.435h3.791c.715 0 1.296-.574 1.307-1.286v-2.022c0-.715-.574-1.296-1.286-1.307h-3.792c-.714 0-1.295.573-1.307 1.286v2.021c0 .716.574 1.296 1.287 1.308z" fill="#000" fill-opacity=".2"/><path d="M11.625 17.435h3.791c.715 0 1.296-.574 1.307-1.286v-2.022c0-.715-.574-1.296-1.286-1.307h-3.792c-.714 0-1.295.573-1.307 1.286v2.021c0 .716.574 1.296 1.287 1.308z" fill="#000" fill-opacity=".2"/><path d="M12 0C5.372 0 0 5.372 0 12s5.372 12 12 12 12-5.372 12-12S18.627 0 12 0zM9.877 3.78c1.326 0 2.482.731 3.088 1.811a3.039 3.039 0 11-.39 4.017A3.539 3.539 0 119.877 3.78zM5.102 17.564a1.27 1.27 0 01-.135-.568v-3.726a1.27 1.27 0 011.842-1.132l2.087 1.056.217.11a2.617 2.617 0 012.495-1.83h3.846a2.615 2.615 0 012.615 2.616v2.077a2.615 2.615 0 01-2.615 2.616h-3.846c-1.164 0-2.15-.76-2.49-1.812l-.222.111-2.091 1.048a1.27 1.27 0 01-1.703-.566z" fill="#444141"/><path d="M12 0C5.372 0 0 5.372 0 12s5.372 12 12 12 12-5.372 12-12S18.627 0 12 0zM9.877 3.78c1.326 0 2.482.731 3.088 1.811a3.039 3.039 0 11-.39 4.017A3.539 3.539 0 119.877 3.78zM5.102 17.564a1.27 1.27 0 01-.135-.568v-3.726a1.27 1.27 0 011.842-1.132l2.087 1.056.217.11a2.617 2.617 0 012.495-1.83h3.846a2.615 2.615 0 012.615 2.616v2.077a2.615 2.615 0 01-2.615 2.616h-3.846c-1.164 0-2.15-.76-2.49-1.812l-.222.111-2.091 1.048a1.27 1.27 0 01-1.703-.566z" fill="#000" fill-opacity=".2"/><path d="M12 0C5.372 0 0 5.372 0 12s5.372 12 12 12 12-5.372 12-12S18.627 0 12 0zM9.877 3.78c1.326 0 2.482.731 3.088 1.811a3.039 3.039 0 11-.39 4.017A3.539 3.539 0 119.877 3.78zM5.102 17.564a1.27 1.27 0 01-.135-.568v-3.726a1.27 1.27 0 011.842-1.132l2.087 1.056.217.11a2.617 2.617 0 012.495-1.83h3.846a2.615 2.615 0 012.615 2.616v2.077a2.615 2.615 0 01-2.615 2.616h-3.846c-1.164 0-2.15-.76-2.49-1.812l-.222.111-2.091 1.048a1.27 1.27 0 01-1.703-.566z" fill="#000" fill-opacity=".2"/><path d="M12 0C5.372 0 0 5.372 0 12s5.372 12 12 12 12-5.372 12-12S18.627 0 12 0zM9.877 3.78c1.326 0 2.482.731 3.088 1.811a3.039 3.039 0 11-.39 4.017A3.539 3.539 0 119.877 3.78zM5.102 17.564a1.27 1.27 0 01-.135-.568v-3.726a1.27 1.27 0 011.842-1.132l2.087 1.056.217.11a2.617 2.617 0 012.495-1.83h3.846a2.615 2.615 0 012.615 2.616v2.077a2.615 2.615 0 01-2.615 2.616h-3.846c-1.164 0-2.15-.76-2.49-1.812l-.222.111-2.091 1.048a1.27 1.27 0 01-1.703-.566z" fill="#000" fill-opacity=".2"/><path d="M8.992 14.76l-.096-.047-2.081-1.045a.345.345 0 00-.502.303V16.312a.347.347 0 00.498.312l.005-.003 2.08-1.06.096-.05.014-.006v-.737l-.014-.007z" fill="#444141"/><path d="M8.992 14.76l-.096-.047-2.081-1.045a.345.345 0 00-.502.303V16.312a.347.347 0 00.498.312l.005-.003 2.08-1.06.096-.05.014-.006v-.737l-.014-.007z" fill="#000" fill-opacity=".2"/><path d="M8.992 14.76l-.096-.047-2.081-1.045a.345.345 0 00-.502.303V16.312a.347.347 0 00.498.312l.005-.003 2.08-1.06.096-.05.014-.006v-.737l-.014-.007z" fill="#000" fill-opacity=".2"/><path d="M8.992 14.76l-.096-.047-2.081-1.045a.345.345 0 00-.502.303V16.312a.347.347 0 00.498.312l.005-.003 2.08-1.06.096-.05.014-.006v-.737l-.014-.007z" fill="#000" fill-opacity=".2"/></g><defs><clipPath id="clip0_13937_5232"><path fill="#fff" d="M0 0h24v24H0z"/></clipPath></defs></svg>