<svg width="25" height="24" viewBox="0 0 25 24" fill="none" xmlns="http://www.w3.org/2000/svg"><path d="M5.625 8.75H10c.069 0 .125.056.125.125v10A.125.125 0 0110 19H5.625a.125.125 0 01-.125-.125v-10c0-.069.056-.125.125-.125zM12.5 8.75h6.875c.069 0 .125.056.125.125v2.5a.125.125 0 01-.125.125H12.5a.125.125 0 01-.125-.125v-2.5c0-.069.056-.125.125-.125z" fill="#211F1F" stroke="#211F1F"/><path d="M12.5 13.875h6.875M12.5 16.375h6.875M12.5 18.875h6.875" stroke="#211F1F" stroke-linecap="round"/><path d="M3 3.25a.75.75 0 01.75-.75h17.5a.75.75 0 01.75.75v17.5a.75.75 0 01-.75.75H3.75a.75.75 0 01-.75-.75V3.25zM5 6.5a1.75 1.75 0 00-1.75 1.75V19.5c0 .966.784 1.75 1.75 1.75h15a1.75 1.75 0 001.75-1.75V8.25A1.75 1.75 0 0020 6.5H5zm.625-.875a1.125 1.125 0 100-2.25 1.125 1.125 0 000 2.25zm2.5 0a1.125 1.125 0 100-2.25 1.125 1.125 0 000 2.25zm2.5 0a1.125 1.125 0 100-2.25 1.125 1.125 0 000 2.25zm3.75-2.25a1.125 1.125 0 000 2.25h5a1.125 1.125 0 000-2.25h-5z" fill="#211F1F" stroke="#211F1F"/></svg>