<svg width="28" height="28" viewBox="0 0 28 28" fill="none" xmlns="http://www.w3.org/2000/svg">
<path d="M14.4668 27.6815C6.784 27.6815 0.533508 21.301 0.533508 13.4592C0.533508 7.68537 3.91342 2.52697 9.14471 0.317367C9.29463 0.253948 9.46009 0.236846 9.6198 0.268262C9.77952 0.299677 9.92618 0.378171 10.0409 0.493644C10.1556 0.609117 10.2332 0.756283 10.2636 0.9162C10.2939 1.07612 10.2758 1.24147 10.2114 1.39097C9.52149 2.98977 9.16645 4.71296 9.16818 6.45426C9.16818 13.3967 14.6882 19.045 21.4725 19.045C23.0822 19.0465 24.6756 18.7233 26.1575 18.0948C26.3074 18.0314 26.4729 18.0143 26.6326 18.0457C26.7923 18.0771 26.939 18.1556 27.0537 18.2711C27.1684 18.3865 27.246 18.5337 27.2764 18.6936C27.3067 18.8535 27.2886 19.0189 27.2242 19.1684C24.9989 24.3396 19.9915 27.6815 14.4668 27.6815ZM8.02382 2.73212C6.21815 3.87687 4.73311 5.46183 3.70819 7.33811C2.68327 9.21439 2.15212 11.3204 2.16462 13.4583C2.16462 20.402 7.68355 26.0507 14.4668 26.0507C16.5409 26.0411 18.5785 25.5047 20.3885 24.492C22.1985 23.4792 23.7216 22.0232 24.8148 20.2607C23.7222 20.5367 22.5995 20.6759 21.4725 20.6749C13.7886 20.6749 7.5376 14.295 7.5376 6.45266C7.53639 5.19656 7.69985 3.94572 8.02382 2.73212Z" fill="#063489"/>
<path d="M24.8759 11.11C24.7437 11.1101 24.6134 11.0778 24.4965 11.016L21.8749 9.63801L19.2537 11.016C19.119 11.0868 18.9672 11.1185 18.8155 11.1075C18.6637 11.0966 18.5181 11.0434 18.395 10.954C18.2719 10.8646 18.1762 10.7425 18.1189 10.6016C18.0615 10.4607 18.0447 10.3066 18.0704 10.1566L18.571 7.23765L16.4494 5.17045C16.3404 5.06429 16.2633 4.92972 16.2268 4.78199C16.1902 4.63426 16.1958 4.47926 16.2428 4.33453C16.2898 4.18979 16.3764 4.0611 16.4927 3.96302C16.6091 3.86493 16.7506 3.80137 16.9012 3.77952L19.8327 3.35285L21.1444 0.697564C21.2115 0.56116 21.3156 0.446297 21.4447 0.365986C21.5738 0.285675 21.7228 0.243127 21.8749 0.243164C22.027 0.243048 22.1761 0.285558 22.3053 0.365872C22.4345 0.446186 22.5386 0.561092 22.6059 0.697564L23.9165 3.35285L26.8485 3.77952C26.9991 3.80137 27.1406 3.86493 27.257 3.96302C27.3733 4.0611 27.4599 4.18979 27.5069 4.33453C27.5539 4.47926 27.5595 4.63426 27.5229 4.78199C27.4864 4.92972 27.4093 5.06429 27.3003 5.17045L25.1787 7.23765L25.6793 10.1566C25.6994 10.2736 25.6937 10.3936 25.6626 10.5082C25.6315 10.6228 25.5757 10.7292 25.4992 10.82C25.4227 10.9108 25.3273 10.9838 25.2196 11.0339C25.1119 11.084 24.9947 11.11 24.8759 11.11ZM21.8749 7.90183C22.0072 7.90168 22.1376 7.93378 22.2548 7.99534L23.7931 8.80423L23.4996 7.09028C23.4773 6.96007 23.487 6.82641 23.5278 6.70078C23.5687 6.57515 23.6394 6.46131 23.7339 6.36903L24.9783 5.15517L23.2574 4.90521C23.1266 4.88618 23.0024 4.83562 22.8955 4.75788C22.7886 4.68014 22.7022 4.57756 22.6437 4.45899L21.8747 2.90059L21.1049 4.45952C21.0465 4.57806 20.9601 4.68059 20.8532 4.75824C20.7462 4.83589 20.622 4.88634 20.4912 4.90521L18.7703 5.15517L20.0148 6.36903C20.1095 6.46119 20.1803 6.57501 20.2212 6.70066C20.2621 6.82631 20.2719 6.96002 20.2496 7.09028L19.9561 8.80423L21.4944 7.99534C21.6117 7.93374 21.7423 7.9017 21.8749 7.90201V7.90183Z" fill="#063489"/>
</svg>
