<svg width="24" height="24" viewBox="0 0 24 24" fill="none" xmlns="http://www.w3.org/2000/svg"><g clip-path="url(#clip0_5818_20325)" fill="#4F9C1F"><path d="M20 20H4V4h10.666V2.667H3.999A1.333 1.333 0 002.666 4v16a1.333 1.333 0 001.333 1.333h16A1.333 1.333 0 0021.333 20V9.333h-1.334V20z"/><path d="M22.38 6.22l-4.666-4.667a.667.667 0 00-.94.94l.92.92-2.667 2.667c-1.333-.58-2.9.093-3.947 1.12l-.48.473 2.36 2.36-2.446 2.447.94.94 2.446-2.447 2.347 2.36.473-.48c1.027-1.046 1.7-2.606 1.12-3.946l2.667-2.667.92.92a.667.667 0 10.94-.94h.013z"/></g><defs><clipPath id="clip0_5818_20325"><path fill="#fff" d="M0 0h24v24H0z"/></clipPath></defs></svg>