<svg width="48" height="48" viewBox="0 0 48 48" fill="none" xmlns="http://www.w3.org/2000/svg">
<path d="M40.2 25.1864C39.9822 24.9371 39.7975 24.6651 39.6452 24.3779C39.5704 32.0968 33.2688 38.3538 25.5325 38.3538C17.7497 38.3538 11.4179 32.022 11.4179 24.2393C11.4179 16.4566 17.7497 10.1247 25.5325 10.1247C32.2276 10.1247 37.8488 14.8108 39.2891 21.075L40.5673 11.573L40.5961 11.3594C36.9565 7.10881 31.5541 4.41016 25.5325 4.41016C20.8346 4.41016 16.5138 6.0534 13.1126 8.79396V8.99912V9.18078V13.2054V13.3652C13.1126 16.0534 11.7193 18.5077 9.51465 19.9102V35.6419V35.9129C13.1245 40.8526 18.9595 44.0681 25.5325 44.0681C32.4393 44.0681 38.5318 40.5176 42.0832 35.1466V34.8561V26.4297C41.3627 26.1953 40.7098 25.7695 40.2 25.1864Z" fill="#FFC619"/>
<path d="M25.5325 12.5239C19.0724 12.5239 13.8167 17.7796 13.8167 24.2398C13.8167 30.7 19.0723 35.9557 25.5325 35.9557C31.9928 35.9557 37.2484 30.7 37.2484 24.2398C37.2484 17.7796 31.9926 12.5239 25.5325 12.5239Z" fill="#FFC619"/>
<path d="M47.9466 2.31472C47.9466 1.29385 47.119 0.466309 46.0982 0.466309C45.1726 0.466309 44.3897 1.15089 44.2664 2.0683L41.5655 22.145C41.4943 22.6735 41.655 23.2068 42.0059 23.6081C42.3569 24.0095 42.864 24.2396 43.3973 24.2396H44.4818V45.7744C44.4818 46.7458 45.2693 47.5334 46.2408 47.5334C47.2123 47.5334 47.9998 46.7458 47.9998 45.7744L47.9466 2.31472Z" fill="#FFC619"/>
<path d="M10.714 2.70519C10.714 2.04268 10.1772 1.50586 9.5147 1.50586C8.85219 1.50586 8.31537 2.04268 8.31537 2.70519V9.34134H6.55635V2.70519C6.55635 2.04268 6.01953 1.50586 5.35702 1.50586C4.69451 1.50586 4.15769 2.04268 4.15769 2.70519V9.34134H2.39866V2.70519C2.39866 2.04268 1.86184 1.50586 1.19933 1.50586C0.536821 1.50586 0 2.04268 0 2.70519V13.5257C0 15.8635 1.50588 17.855 3.598 18.5847V45.7745C3.598 46.746 4.38556 47.5335 5.35702 47.5335C6.32848 47.5335 7.11604 46.746 7.11604 45.7745V18.5847C9.20815 17.855 10.714 15.8635 10.714 13.5257V2.70519Z" fill="#FFC619"/>
</svg>
