<svg width="48" height="48" viewBox="0 0 48 48" fill="none" xmlns="http://www.w3.org/2000/svg">
<g clip-path="url(#clip0_5458_9277)">
<path d="M43.531 24.0016C43.531 23.1151 44.2499 22.3963 45.1364 22.3963L48 22.3954C47.7866 19.1776 46.9455 16.1379 45.5919 13.3887L43.1077 14.8231C42.8554 14.9697 42.5787 15.0387 42.3066 15.0387C41.7516 15.0387 41.2124 14.751 40.9152 14.236C40.4714 13.4686 40.7341 12.4864 41.5023 12.0435L44.0053 10.5981C42.2556 7.99164 40.0115 5.74664 37.405 3.9963L35.9602 6.49923C35.6632 7.01414 35.1232 7.30191 34.5682 7.30191C34.2961 7.30191 34.0203 7.23284 33.7672 7.08707C32.9996 6.64346 32.7363 5.66208 33.1792 4.8938L34.6128 2.40888C31.8638 1.05431 28.8241 0.213283 25.6053 0V2.86189C25.6053 3.74844 24.8865 4.46733 24 4.46733C23.1133 4.46733 22.3946 3.74854 22.3946 2.86189V0C19.1759 0.213283 16.1377 1.05431 13.3878 2.40888L14.8207 4.89147C15.2635 5.65966 15.0002 6.64104 14.2327 7.08484C13.9797 7.23062 13.7035 7.29958 13.4317 7.29958C12.8767 7.29958 12.3364 7.01191 12.0394 6.49691L10.5957 3.99543C7.98931 5.74499 5.7449 7.99086 3.99475 10.5972L6.49614 12.0411C7.26423 12.4848 7.52701 13.4671 7.08388 14.2345C6.78603 14.7495 6.24682 15.0372 5.69182 15.0372C5.41974 15.0372 5.14302 14.9682 4.8908 14.8224L2.4083 13.3887C1.05421 16.1385 0.21309 19.1776 0 22.3954L2.86024 22.3963C3.74689 22.3963 4.46558 23.1151 4.46558 24.0016C4.46558 24.8882 3.74689 25.6071 2.86024 25.6071L0.000678013 25.6062C0.212993 28.8241 1.05421 31.8631 2.40878 34.6122L4.88895 33.1809C5.65705 32.7372 6.63774 33.0006 7.08233 33.7687C7.52517 34.5369 7.26181 35.5183 6.49439 35.9621L3.99543 37.4044C5.74587 40.0109 7.99077 42.2551 10.5971 44.0048L12.0396 41.5066C12.4832 40.7391 13.4646 40.4734 14.2329 40.9186C15.001 41.3624 15.2638 42.3445 14.8209 43.112L13.3887 45.5921C16.1378 46.946 19.1768 47.787 22.3947 48.0002V45.1382C22.3947 44.2516 23.1134 43.5328 24.0001 43.5328C24.8865 43.5328 25.6054 44.2516 25.6054 45.1382V48.0001C28.8242 47.7869 31.8624 46.9458 34.6122 45.5912L33.1784 43.1095C32.7347 42.3421 32.9975 41.3599 33.7656 40.917C34.5329 40.471 35.5152 40.7367 35.9582 41.5042L37.4028 44.0055C40.0091 42.2559 42.2542 40.0109 44.0037 37.4044L41.5023 35.9605C40.7349 35.5168 40.4714 34.5354 40.9146 33.7672C41.3574 32.9998 42.3379 32.7347 43.1077 33.1793L45.5911 34.613C46.9455 31.8631 47.7866 28.8249 47.9992 25.6062L45.1364 25.6071C44.2499 25.6071 43.531 24.8882 43.531 24.0016ZM38.181 25.6054H26.1353C25.6478 26.2528 24.8729 26.6715 24.0001 26.6715C22.5246 26.6715 21.3285 25.4754 21.3285 24C21.3285 22.9168 21.9735 21.985 22.9 21.5656L27.1659 2.51155C27.3604 1.64621 28.2259 1.1069 29.0834 1.295C29.9489 1.4894 30.4937 2.34767 30.2999 3.2131L26.0328 22.2676C26.0681 22.3089 26.1025 22.3511 26.1353 22.3947H38.1809C39.0677 22.3947 39.7864 23.1134 39.7864 24C39.7865 24.8866 39.0678 25.6054 38.181 25.6054Z" fill="#FFC619"/>
</g>
<defs>
<clipPath id="clip0_5458_9277">
<rect width="48" height="48" fill="white"/>
</clipPath>
</defs>
</svg>
