<svg width="48" height="48" viewBox="0 0 48 48" fill="none" xmlns="http://www.w3.org/2000/svg">
<path d="M43.9342 10.6463L43.2161 10.8739L39.3918 11.2147L38.3116 12.9396L37.5278 12.6906L34.4843 9.94652L34.0427 8.51948L33.4514 6.9977L31.5385 5.28189L29.2818 4.84033L29.2299 5.87318L31.4407 8.03055L32.5225 9.30481L31.3063 9.94041L30.3162 9.64858L28.8326 9.02979L28.8831 7.83346L26.9365 7.03285L26.2902 9.84568L24.3284 10.2903L24.5225 11.8594L27.0786 12.3514L27.5202 9.84415L29.6302 10.1558L30.6111 10.7303H32.1848L33.262 12.8877L36.1176 15.7846L35.9083 16.9106L33.6057 16.6173L29.6271 18.6264L26.7624 22.0626L26.3895 23.5844H25.3613L23.4453 22.7013L21.5844 23.5844L22.0473 25.5477L22.8571 24.6142L24.2811 24.5699L24.1818 26.3331L25.3613 26.6784L26.5393 28.0015L28.4629 27.4607L30.66 27.8075L33.2115 28.4935L34.4858 28.6432L36.6462 31.0955L40.8158 33.5477L38.1191 38.6998L35.2727 40.0229L34.1924 42.9671L30.0733 45.7173L29.6348 47.3033C40.1649 44.767 47.9984 35.3079 47.9984 23.9985C47.9954 19.0588 46.498 14.4614 43.9342 10.6463Z" fill="#FFC619"/>
<path d="M26.7609 36.5422L25.013 33.3015L26.6173 29.9585L25.013 29.4788L23.2116 27.6698L19.2208 26.7744L17.8961 24.0028V25.6484H17.3124L13.8732 20.9853V17.1549L11.3522 13.0556L7.34911 13.7691H4.6524L3.29564 12.8799L5.02673 11.5078L3.30022 11.9066C1.21924 15.4604 0.00610352 19.5842 0.00610352 24.0013C0.00610352 37.2527 10.7487 47.9998 24.0015 47.9998C25.0221 47.9998 26.0229 47.9096 27.013 47.7905L26.7624 44.8829C26.7624 44.8829 27.864 40.5651 27.864 40.4184C27.8625 40.2702 26.7609 36.5422 26.7609 36.5422Z" fill="#FFC619"/>
<path d="M8.92283 7.73873L13.1856 7.14439L15.1505 6.06723L17.3613 6.70436L20.8938 6.50879L22.1039 4.60657L23.8686 4.89687L28.1543 4.49503L29.3354 3.19328L31.0008 2.08098L33.3568 2.43545L34.2154 2.30558C31.1123 0.84492 27.6593 0 24 0C16.5516 0 9.89151 3.39496 5.49426 8.72575H5.50649L8.92283 7.73873ZM25.0145 2.38655L27.4652 1.03743L29.039 1.94652L26.7609 3.68067L24.5852 3.89916L23.6058 3.26356L25.0145 2.38655ZM17.7555 2.58365L18.8373 3.03438L20.2536 2.58365L21.0252 3.92055L17.7555 4.77922L16.1833 3.85944C16.1818 3.85944 17.7204 2.86937 17.7555 2.58365Z" fill="#FFC619"/>
</svg>
