<svg width="48" height="48" viewBox="0 0 48 48" fill="none" xmlns="http://www.w3.org/2000/svg">
<path d="M40.6124 17.0794C41.3762 17.0794 42.0941 16.7821 42.6341 16.2421C43.1742 15.702 43.4717 14.9841 43.4717 14.2203C43.4717 13.4565 43.1742 12.7386 42.6341 12.1986L39.8038 9.36818C39.2638 8.82803 38.5459 8.53073 37.7821 8.53073C37.0183 8.53073 36.3004 8.82803 35.7604 9.36818C34.7354 10.3931 34.6536 12.0088 35.5135 13.129L34.8402 13.76C32.4347 11.8376 29.5528 10.4877 26.4022 9.92011V8.48133C28.6674 8.39645 30.4844 6.52823 30.4844 4.24269C30.4844 1.90325 28.5811 0 26.2417 0H19.829C17.4895 0 15.5863 1.90325 15.5863 4.24269C15.5863 6.52823 17.4032 8.39645 19.6684 8.48133V9.92011C16.4902 10.4927 13.5857 11.8614 11.1676 13.8106L10.588 13.2085C11.5144 12.0865 11.4532 10.4177 10.4039 9.36818C9.86384 8.82803 9.14575 8.53073 8.38206 8.53073C7.61838 8.53073 6.9004 8.82803 6.36036 9.36818L3.53007 12.1986C2.99004 12.7386 2.69263 13.4565 2.69263 14.2203C2.69263 14.9841 2.99004 15.7019 3.53007 16.242C4.07011 16.7821 4.7882 17.0794 5.55188 17.0794C6.19802 17.0794 6.81114 16.8658 7.31177 16.4732L7.9433 17.1294C5.52853 20.309 4.09312 24.2711 4.09312 28.5626C4.09312 39.0073 12.5906 47.5048 23.0354 47.5048C33.4801 47.5048 41.9775 39.0073 41.9775 28.5626C41.9775 24.2412 40.5219 20.254 38.0766 17.0631L38.7739 16.4096C39.2884 16.843 39.932 17.0794 40.6124 17.0794ZM38.6093 28.5625C38.6093 37.1499 31.6228 44.1365 23.0354 44.1365C14.4478 44.1365 7.46131 37.1499 7.46131 28.5625C7.46131 19.9749 14.4478 12.9884 23.0354 12.9884C31.6229 12.9885 38.6093 19.9749 38.6093 28.5625Z" fill="#FFC619"/>
<path d="M23.0354 16.5532C16.4137 16.5532 11.0265 21.9404 11.0265 28.5622C11.0265 35.1839 16.4137 40.571 23.0354 40.571C29.6572 40.571 35.0443 35.1839 35.0443 28.5622C35.0443 21.9404 29.6572 16.5532 23.0354 16.5532ZM29.4163 25.2127L25.4505 28.6858C25.4212 29.2635 25.1886 29.8329 24.7474 30.2741C23.8019 31.2196 22.269 31.2196 21.3235 30.2741C20.378 29.3285 20.378 27.7957 21.3235 26.8502C21.8466 26.3272 22.5493 26.0947 23.233 26.1505L27.1971 22.679C27.8969 22.0663 28.9607 22.1366 29.5736 22.8362C30.1863 23.536 30.1158 24.5999 29.4163 25.2127Z" fill="#FFC619"/>
</svg>
