<svg width="21" height="14" viewBox="0 0 21 14" fill="none" xmlns="http://www.w3.org/2000/svg">
<path d="M20.1562 9.75L17 12.9062C16.7188 13.1875 16.25 13.1875 15.9688 12.9062L12.8125 9.75C12.5 9.46875 12.5 9 12.8125 8.6875L13.1562 8.34375C13.4375 8.0625 13.9375 8.0625 14.2188 8.375L15.5 9.71875V4H9.625C9.40625 4 9.21875 3.9375 9.09375 3.78125L8.59375 3.28125C8.125 2.8125 8.46875 2 9.125 2H16.75C17.1562 2 17.5 2.34375 17.5 2.75V9.71875L18.75 8.375C19.0312 8.0625 19.5312 8.0625 19.8125 8.34375L20.1562 8.6875C20.4688 9 20.4688 9.46875 20.1562 9.75ZM11.875 10.25L12.375 10.75C12.8438 11.2188 12.5 12 11.8438 12H4.25C3.8125 12 3.5 11.6875 3.5 11.25V4.3125L2.21875 5.65625C1.9375 5.96875 1.4375 5.96875 1.15625 5.6875L0.8125 5.34375C0.5 5.03125 0.5 4.5625 0.8125 4.28125L3.96875 1.125C4.25 0.84375 4.71875 0.84375 5 1.125L8.15625 4.28125C8.46875 4.5625 8.46875 5.03125 8.15625 5.34375L7.8125 5.6875C7.53125 5.96875 7.03125 5.96875 6.75 5.65625L5.5 4.3125V10H11.3438C11.5625 10 11.75 10.0938 11.875 10.25Z" fill="white"/>
</svg>