<svg width="16" height="16" viewBox="0 0 16 16" fill="none" xmlns="http://www.w3.org/2000/svg"><path d="M6.625 7.031A.403.403 0 007 6.656v-1.5a.38.38 0 00-.375-.375H3.562C4.563 3.406 6.156 2.5 8 2.5c3.031 0 5.5 2.469 5.5 5.5 0 3.063-2.469 5.5-5.5 5.5-1.406 0-2.688-.5-3.656-1.375-.157-.125-.375-.125-.5.031L2.78 13.22c-.156.156-.156.406 0 .531a7.744 7.744 0 005.219 2c4.281 0 7.75-3.438 7.75-7.719A7.715 7.715 0 008.062.281 7.605 7.605 0 002.25 2.844V.375A.403.403 0 001.875 0h-1.5A.38.38 0 000 .375v6.281a.38.38 0 00.375.375h6.25z" fill="#fff"/></svg>