<svg width="24" height="24" viewBox="0 0 24 24" fill="none" xmlns="http://www.w3.org/2000/svg"><path d="M21.587 17.0156C21.8683 17.2969 22.0089 17.6719 22.0089 18C21.962 18.7969 21.3995 19.5 20.462 19.5H2.50888C1.57138 19.5 1.00888 18.7969 1.00888 18C0.962008 17.6719 1.10263 17.2969 1.38388 17.0156C2.27451 16.0312 4.00888 14.5781 4.00888 9.75C4.00888 6.14062 6.54013 3.23438 10.0089 2.48438V1.5C10.0089 0.703125 10.6651 0 11.5089 0C12.3058 0 12.962 0.703125 12.962 1.5V2.48438C16.4308 3.23438 18.962 6.14062 18.962 9.75C18.962 14.5781 20.6964 16.0312 21.587 17.0156ZM4.14951 17.25H18.8214C17.837 15.9844 16.7589 13.7812 16.712 9.79688C16.712 9.79688 16.7589 9.79688 16.7589 9.75C16.7589 6.89062 14.3683 4.5 11.5089 4.5C8.60263 4.5 6.25888 6.89062 6.25888 9.75C6.25888 9.79688 6.25888 9.79688 6.25888 9.79688C6.21201 13.7812 5.13388 15.9844 4.14951 17.25ZM11.5089 24C9.82138 24 8.50888 22.6875 8.50888 21H14.462C14.462 22.6875 13.1495 24 11.5089 24Z" fill="#444141"/></svg>
