<svg xmlns="http://www.w3.org/2000/svg" width="24" height="24" viewBox="0 0 24 24"><path d="M12,0A12,12,0,1,0,24,12,12,12,0,0,0,12,0Zm6.02,9.182v1.625a5.67,5.67,0,0,1-3.469-1.179l.012,5a4.189,4.189,0,0,1-1.257,2.981A4.277,4.277,0,0,1,10.916,18.8a4.4,4.4,0,0,1-.645.047,4.291,4.291,0,0,1-2.63-.889,4.364,4.364,0,0,1-.4-.353,4.2,4.2,0,0,1-.19-5.8,4.291,4.291,0,0,1,3.224-1.442,4.4,4.4,0,0,1,.645.048v2.272a2.023,2.023,0,1,0,1.391,1.922l0-3.349V5.148h2.238a3.464,3.464,0,0,0,3.466,3.431h.006v.6Z" fill="#fff"/></svg>