<svg width="13" height="13" viewBox="0 0 13 13" fill="none" xmlns="http://www.w3.org/2000/svg"><path d="M10.39 2.43c1.15 1.148 1.86 2.652 1.86 4.293 0 3.336-2.79 6.07-6.152 6.07-1.012 0-1.996-.273-2.899-.738L0 12.875.848 9.73a6.078 6.078 0 01-.82-3.035c0-3.336 2.734-6.07 6.07-6.07 1.64 0 3.172.656 4.293 1.805zm-4.292 9.324c2.789 0 5.113-2.27 5.113-5.031 0-1.368-.574-2.625-1.531-3.582a4.985 4.985 0 00-3.555-1.477c-2.79 0-5.059 2.27-5.059 5.031 0 .957.274 1.887.766 2.707l.137.192-.52 1.86 1.914-.52.164.109c.793.465 1.668.71 2.57.71zM8.887 7.98c.136.082.246.11.273.192.055.055.055.355-.082.71-.137.356-.738.684-1.012.712-.492.082-.875.054-1.832-.383-1.53-.656-2.515-2.188-2.597-2.27-.082-.109-.602-.82-.602-1.586 0-.738.383-1.093.52-1.257a.513.513 0 01.41-.192h.273c.11 0 .219-.027.356.274.11.3.437 1.039.465 1.12.027.083.054.165 0 .274-.274.574-.602.547-.438.82C5.223 7.407 5.797 7.763 6.7 8.2c.137.082.219.055.328-.027.082-.11.383-.465.465-.602.11-.164.219-.136.356-.082.136.055.875.41 1.039.492z" fill="#000"/></svg>