<svg xmlns="http://www.w3.org/2000/svg" width="24" height="16.875" viewBox="0 0 24 16.875"><g transform="translate(-1356.525 -494.5)"><path d="M24.023-10.86A3.016,3.016,0,0,0,21.9-13c-1.872-.5-9.377-.5-9.377-.5s-7.5,0-9.377.5A3.016,3.016,0,0,0,1.026-10.86a31.635,31.635,0,0,0-.5,5.814,31.635,31.635,0,0,0,.5,5.814,2.971,2.971,0,0,0,2.122,2.1c1.872.5,9.377.5,9.377.5s7.5,0,9.377-.5a2.971,2.971,0,0,0,2.122-2.1,31.635,31.635,0,0,0,.5-5.814A31.635,31.635,0,0,0,24.023-10.86ZM10.07-1.477V-8.614l6.273,3.569Z" transform="translate(1356 508)" fill="#fff"/></g></svg>